<svg height="1534" width="720" xmlns="http://www.w3.org/2000/svg">
<rect height="1534" fill="#555" width="720"></rect>
<text fill="#7f7" font-family="Courier New" font-size="12" xml:space="preserve">
<tspan x="10" y="26">15 megabytes installed</tspan>
<tspan x="10" y="42"></tspan>
<tspan x="10" y="58">node_modules</tspan>
<tspan x="10" y="74">└─┬ to-markdown@3.0.4 </tspan>
<tspan x="10" y="90">  ├─┬ collapse-whitespace@1.1.2 </tspan>
<tspan x="10" y="106">  │ ├── block-elements@1.1.0 </tspan>
<tspan x="10" y="122">  │ └── void-elements@2.0.1 </tspan>
<tspan x="10" y="138">  └─┬ jsdom@9.12.0 </tspan>
<tspan x="10" y="154">    ├── abab@1.0.3 </tspan>
<tspan x="10" y="170">    ├── acorn@4.0.11 </tspan>
<tspan x="10" y="186">    ├── acorn-globals@3.1.0 </tspan>
<tspan x="10" y="202">    ├── array-equal@1.0.0 </tspan>
<tspan x="10" y="218">    ├── content-type-parser@1.0.1 </tspan>
<tspan x="10" y="234">    ├── cssom@0.3.2 </tspan>
<tspan x="10" y="250">    ├── cssstyle@0.2.37 </tspan>
<tspan x="10" y="266">    ├─┬ escodegen@1.8.1 </tspan>
<tspan x="10" y="282">    │ ├── esprima@2.7.3 </tspan>
<tspan x="10" y="298">    │ ├── estraverse@1.9.3 </tspan>
<tspan x="10" y="314">    │ ├── esutils@2.0.2 </tspan>
<tspan x="10" y="330">    │ ├─┬ optionator@0.8.2 </tspan>
<tspan x="10" y="346">    │ │ ├── deep-is@0.1.3 </tspan>
<tspan x="10" y="362">    │ │ ├── fast-levenshtein@2.0.6 </tspan>
<tspan x="10" y="378">    │ │ ├── levn@0.3.0 </tspan>
<tspan x="10" y="394">    │ │ ├── prelude-ls@1.1.2 </tspan>
<tspan x="10" y="410">    │ │ ├── type-check@0.3.2 </tspan>
<tspan x="10" y="426">    │ │ └── wordwrap@1.0.0 </tspan>
<tspan x="10" y="442">    │ └─┬ source-map@0.2.0 </tspan>
<tspan x="10" y="458">    │   └── amdefine@1.0.1 </tspan>
<tspan x="10" y="474">    ├── html-encoding-sniffer@1.0.1 </tspan>
<tspan x="10" y="490">    ├── nwmatcher@1.3.9 </tspan>
<tspan x="10" y="506">    ├── parse5@1.5.1 </tspan>
<tspan x="10" y="522">    ├─┬ request@2.81.0 </tspan>
<tspan x="10" y="538">    │ ├── aws-sign2@0.6.0 </tspan>
<tspan x="10" y="554">    │ ├── aws4@1.6.0 </tspan>
<tspan x="10" y="570">    │ ├── caseless@0.12.0 </tspan>
<tspan x="10" y="586">    │ ├─┬ combined-stream@1.0.5 </tspan>
<tspan x="10" y="602">    │ │ └── delayed-stream@1.0.0 </tspan>
<tspan x="10" y="618">    │ ├── extend@3.0.0 </tspan>
<tspan x="10" y="634">    │ ├── forever-agent@0.6.1 </tspan>
<tspan x="10" y="650">    │ ├─┬ form-data@2.1.4 </tspan>
<tspan x="10" y="666">    │ │ └── asynckit@0.4.0 </tspan>
<tspan x="10" y="682">    │ ├─┬ har-validator@4.2.1 </tspan>
<tspan x="10" y="698">    │ │ ├─┬ ajv@4.11.7 </tspan>
<tspan x="10" y="714">    │ │ │ ├── co@4.6.0 </tspan>
<tspan x="10" y="730">    │ │ │ └─┬ json-stable-stringify@1.0.1 </tspan>
<tspan x="10" y="746">    │ │ │   └── jsonify@0.0.0 </tspan>
<tspan x="10" y="762">    │ │ └── har-schema@1.0.5 </tspan>
<tspan x="10" y="778">    │ ├─┬ hawk@3.1.3 </tspan>
<tspan x="10" y="794">    │ │ ├── boom@2.10.1 </tspan>
<tspan x="10" y="810">    │ │ ├── cryptiles@2.0.5 </tspan>
<tspan x="10" y="826">    │ │ ├── hoek@2.16.3 </tspan>
<tspan x="10" y="842">    │ │ └── sntp@1.0.9 </tspan>
<tspan x="10" y="858">    │ ├─┬ http-signature@1.1.1 </tspan>
<tspan x="10" y="874">    │ │ ├── assert-plus@0.2.0 </tspan>
<tspan x="10" y="890">    │ │ ├─┬ jsprim@1.4.0 </tspan>
<tspan x="10" y="906">    │ │ │ ├── assert-plus@1.0.0 </tspan>
<tspan x="10" y="922">    │ │ │ ├── extsprintf@1.0.2 </tspan>
<tspan x="10" y="938">    │ │ │ ├── json-schema@0.2.3 </tspan>
<tspan x="10" y="954">    │ │ │ └── verror@1.3.6 </tspan>
<tspan x="10" y="970">    │ │ └─┬ sshpk@1.13.0 </tspan>
<tspan x="10" y="986">    │ │   ├── asn1@0.2.3 </tspan>
<tspan x="10" y="1002">    │ │   ├── assert-plus@1.0.0 </tspan>
<tspan x="10" y="1018">    │ │   ├── bcrypt-pbkdf@1.0.1 </tspan>
<tspan x="10" y="1034">    │ │   ├─┬ dashdash@1.14.1 </tspan>
<tspan x="10" y="1050">    │ │   │ └── assert-plus@1.0.0 </tspan>
<tspan x="10" y="1066">    │ │   ├── ecc-jsbn@0.1.1 </tspan>
<tspan x="10" y="1082">    │ │   ├─┬ getpass@0.1.6 </tspan>
<tspan x="10" y="1098">    │ │   │ └── assert-plus@1.0.0 </tspan>
<tspan x="10" y="1114">    │ │   ├── jodid25519@1.0.2 </tspan>
<tspan x="10" y="1130">    │ │   ├── jsbn@0.1.1 </tspan>
<tspan x="10" y="1146">    │ │   └── tweetnacl@0.14.5 </tspan>
<tspan x="10" y="1162">    │ ├── is-typedarray@1.0.0 </tspan>
<tspan x="10" y="1178">    │ ├── isstream@0.1.2 </tspan>
<tspan x="10" y="1194">    │ ├── json-stringify-safe@5.0.1 </tspan>
<tspan x="10" y="1210">    │ ├─┬ mime-types@2.1.15 </tspan>
<tspan x="10" y="1226">    │ │ └── mime-db@1.27.0 </tspan>
<tspan x="10" y="1242">    │ ├── oauth-sign@0.8.2 </tspan>
<tspan x="10" y="1258">    │ ├── performance-now@0.2.0 </tspan>
<tspan x="10" y="1274">    │ ├── qs@6.4.0 </tspan>
<tspan x="10" y="1290">    │ ├── safe-buffer@5.0.1 </tspan>
<tspan x="10" y="1306">    │ ├── stringstream@0.0.5 </tspan>
<tspan x="10" y="1322">    │ ├── tunnel-agent@0.6.0 </tspan>
<tspan x="10" y="1338">    │ └── uuid@3.0.1 </tspan>
<tspan x="10" y="1354">    ├── sax@1.2.2 </tspan>
<tspan x="10" y="1370">    ├── symbol-tree@3.2.2 </tspan>
<tspan x="10" y="1386">    ├─┬ tough-cookie@2.3.2 </tspan>
<tspan x="10" y="1402">    │ └── punycode@1.4.1 </tspan>
<tspan x="10" y="1418">    ├── webidl-conversions@4.0.1 </tspan>
<tspan x="10" y="1434">    ├─┬ whatwg-encoding@1.0.1 </tspan>
<tspan x="10" y="1450">    │ └── iconv-lite@0.4.13 </tspan>
<tspan x="10" y="1466">    ├─┬ whatwg-url@4.7.0 </tspan>
<tspan x="10" y="1482">    │ ├── tr46@0.0.3 </tspan>
<tspan x="10" y="1498">    │ └── webidl-conversions@3.0.1 </tspan>
<tspan x="10" y="1514">    └── xml-name-validator@2.0.1</tspan>
</text>
</svg>
